# Blender v2.93.5 OBJ File: ''
# www.blender.org
mtllib pistol.mtl
o slide_Cube.012
v -0.187500 1.000000 -2.437500
v 0.187500 1.000000 3.000000
v -0.187500 1.000000 3.000000
v 0.187500 1.000000 -2.437500
v -0.375000 0.000000 -2.625000
v -0.375000 0.812500 -2.500000
v 0.375000 0.812500 -2.500000
v 0.375000 0.812500 3.000000
v 0.375000 0.000000 -2.625000
v -0.375000 -0.000000 1.437500
v -0.375000 0.812500 3.000000
v 0.375000 -0.000000 1.437500
v -0.375000 -0.000000 3.000000
v 0.375000 -0.000000 3.000000
v -0.312500 -0.000000 3.000000
v 0.312500 -0.000000 3.000000
v -0.312500 -0.000000 1.437500
v 0.312500 -0.000000 1.437500
v 0.312500 -0.187500 3.000000
v 0.125000 -0.375000 3.000000
v -0.125000 -0.375000 3.000000
v -0.312500 -0.187500 3.000000
v -0.312500 -0.187500 1.437500
v -0.125000 -0.375000 1.437500
v 0.125000 -0.375000 1.437500
v 0.312500 -0.187500 1.437500
v 0.312500 0.875000 -2.312500
v 0.250000 1.062500 -2.312500
v 0.312500 0.875000 -2.062500
v 0.250000 1.062500 -2.062500
v -0.312500 0.875000 -2.312500
v -0.250000 1.062500 -2.312500
v -0.312500 0.875000 -2.062500
v -0.250000 1.062500 -2.062500
v 0.125000 1.125000 -2.062500
v -0.000000 1.062500 -2.062500
v -0.125000 1.125000 -2.062500
v -0.125000 1.125000 -2.312500
v -0.000000 1.062500 -2.312500
v 0.125000 1.125000 -2.312500
v -0.062500 1.125000 2.875000
v -0.062500 1.000000 2.937500
v -0.062500 1.187500 2.625000
v -0.062500 1.000000 2.562500
v 0.062500 1.125000 2.875000
v 0.062500 1.000000 2.937500
v 0.062500 1.187500 2.625000
v 0.062500 1.000000 2.562500
vt 1.000000 0.906250
vt 0.804688 0.804688
vt 0.289062 0.804688
vt 0.304688 0.906250
vt 1.000000 0.593750
vt 0.312500 0.593750
vt 0.304688 0.570312
vt 1.000000 0.570312
vt 1.000000 0.906250
vt 0.304688 0.906250
vt 0.289062 0.804688
vt 0.804688 0.804688
vt 1.000000 0.648438
vt 1.000000 0.671875
vt 0.304688 0.671875
vt 0.312500 0.648438
vt 1.000000 0.804688
vt 1.000000 0.804688
vt 0.609375 0.781250
vt 0.609375 0.789062
vt 0.804688 0.789062
vt 0.804688 0.781250
vt 0.804688 0.789062
vt 0.804688 0.781250
vt 0.609375 0.781250
vt 0.609375 0.789062
vt 0.804688 0.804688
vt 0.804688 0.781250
vt 1.000000 0.781250
vt 1.000000 0.804688
vt 0.804688 0.671875
vt 0.804688 0.695312
vt 1.000000 0.695312
vt 1.000000 0.671875
vt 0.031250 0.656250
vt 0.007812 0.632812
vt 0.101562 0.632812
vt 0.078125 0.656250
vt 0.187500 0.640625
vt 0.210938 0.617188
vt 0.210938 0.515625
vt 0.203125 0.515625
vt 0.125000 0.515625
vt 0.117188 0.515625
vt 0.117188 0.617188
vt 0.140625 0.640625
vt 1.000000 0.757812
vt 1.000000 0.718750
vt 0.804688 0.718750
vt 0.804688 0.757812
vt 1.000000 0.781250
vt 0.804688 0.781250
vt 0.203125 0.492188
vt 0.179688 0.468750
vt 0.148438 0.468750
vt 0.125000 0.492188
vt 0.007812 0.531250
vt 0.101562 0.531250
vt 0.312500 0.476562
vt 0.312500 0.570312
vt 0.828125 0.570312
vt 0.828125 0.476562
vt 0.384909 0.602968
vt 0.360512 0.602968
vt 0.360512 0.635498
vt 0.384909 0.635498
vt 0.624538 0.975989
vt 0.648301 0.944305
vt 0.632459 0.952226
vt 0.384909 0.635498
vt 0.360512 0.635498
vt 0.360512 0.602968
vt 0.384909 0.602968
vt 0.703747 0.975989
vt 0.679984 0.944305
vt 0.695826 0.952226
vt 0.349050 0.602482
vt 0.349050 0.585732
vt 0.382551 0.585732
vt 0.382551 0.602482
vt 0.349050 0.652734
vt 0.349050 0.635984
vt 0.382551 0.635984
vt 0.382551 0.652734
vt 0.349050 0.619233
vt 0.382551 0.619233
vt 0.703747 0.975989
vt 0.664142 0.952226
vt 0.624538 0.975989
vt 0.664142 0.952226
vt 0.632459 0.952226
vt 0.648301 0.944305
vt 0.695826 0.952226
vt 0.679984 0.944305
vt 0.673806 0.989268
vt 0.665870 0.957523
vt 0.689678 0.949587
vt 0.689678 0.997204
vt 0.713608 0.634300
vt 0.713608 0.618004
vt 0.738052 0.618004
vt 0.738052 0.634300
vt 0.665870 0.957523
vt 0.673806 0.989268
vt 0.689678 0.997204
vt 0.689678 0.949587
vt 0.721455 0.617760
vt 0.721455 0.634543
vt 0.738238 0.634543
vt 0.738238 0.617760
vt 0.741945 0.634209
vt 0.709715 0.634209
vt 0.709715 0.618094
vt 0.741945 0.618094
vn 1.0000 -0.0000 -0.0000
vn -0.7071 0.7071 0.0000
vn -1.0000 0.0000 0.0000
vn 0.7071 0.7071 0.0000
vn 0.0000 1.0000 0.0000
vn 0.0000 -1.0000 -0.0000
vn 0.0000 0.3162 -0.9487
vn 0.0000 0.0000 1.0000
vn 0.7071 -0.7071 -0.0000
vn -0.7071 -0.7071 -0.0000
vn 0.0000 0.1521 -0.9884
vn 0.9487 0.3162 -0.0000
vn -0.9487 0.3162 0.0000
vn 0.0000 0.0000 -1.0000
vn 0.4472 0.8944 -0.0000
vn -0.4472 0.8944 0.0000
vn 0.0000 0.4472 0.8944
vn 0.0000 0.9701 0.2425
usemtl TD_Checker
s 1
f 8/1/1 12/2/1 9/3/1 7/4/1
f 3/5/2 1/6/2 6/7/2 11/8/2
f 11/9/3 6/10/3 5/11/3 10/12/3
f 2/13/4 8/14/4 7/15/4 4/16/4
f 3/5/5 2/13/5 4/16/5 1/6/5
f 8/1/1 14/17/1 12/2/1
f 10/12/3 13/18/3 11/9/3
f 14/19/6 16/20/6 18/21/6 12/22/6
f 10/23/6 17/24/6 15/25/6 13/26/6
f 17/27/3 23/28/3 22/29/3 15/30/3
f 16/31/1 19/32/1 26/33/1 18/34/1
f 4/35/7 7/36/7 6/37/7 1/38/7
f 3/39/8 11/40/8 13/41/8 15/42/8 16/43/8 14/44/8 8/45/8 2/46/8
f 24/47/6 25/48/6 20/49/6 21/50/6
f 19/32/9 20/49/9 25/48/9 26/33/9
f 23/51/10 24/47/10 21/50/10 22/52/10
f 15/42/8 22/53/8 21/54/8 20/55/8 19/56/8 16/43/8
f 9/57/11 5/58/11 6/37/11 7/36/11
f 12/59/6 10/60/6 5/61/6 9/62/6
f 27/63/12 28/64/12 30/65/12 29/66/12
f 33/67/8 37/68/8 34/69/8
f 33/70/13 34/71/13 32/72/13 31/73/13
f 27/74/14 40/75/14 28/76/14
f 35/77/15 30/78/15 28/79/15 40/80/15
f 34/81/16 37/82/16 38/83/16 32/84/16
f 37/82/15 36/85/15 39/86/15 38/83/15
f 36/85/16 35/77/16 40/80/16 39/86/16
f 29/87/8 36/88/8 33/67/8
f 27/74/14 31/89/14 39/90/14
f 31/89/14 32/91/14 38/92/14
f 31/89/14 38/92/14 39/90/14
f 27/74/14 39/90/14 40/75/14
f 29/87/8 30/93/8 35/94/8
f 29/87/8 35/94/8 36/88/8
f 36/88/8 37/68/8 33/67/8
f 41/95/3 43/96/3 44/97/3 42/98/3
f 43/99/7 47/100/7 48/101/7 44/102/7
f 47/103/1 45/104/1 46/105/1 48/106/1
f 45/107/17 41/108/17 42/109/17 46/110/17
f 43/111/18 41/112/18 45/113/18 47/114/18
o trigger_Cube.027
v 0.125000 -0.875000 -1.187500
v 0.125000 -0.437500 -1.000000
v 0.125000 -1.000000 -0.750000
v 0.125000 -0.437500 -0.562500
v -0.125000 -0.875000 -1.187500
v -0.125000 -0.437500 -1.000000
v -0.125000 -1.000000 -0.750000
v -0.125000 -0.437500 -0.562500
v 0.125000 -0.812500 -0.812500
v -0.125000 -0.812500 -0.812500
v 0.125000 -0.562500 -0.750000
v -0.125000 -0.562500 -0.750000
vt 0.067961 0.315129
vt 0.067961 0.370734
vt 0.083848 0.346903
vt 0.490817 0.300717
vt 0.464692 0.300717
vt 0.464692 0.335551
vt 0.490817 0.335551
vt 0.083848 0.346903
vt 0.067961 0.370734
vt 0.067961 0.315129
vt 0.196576 0.172754
vt 0.196576 0.205158
vt 0.253283 0.205158
vt 0.253283 0.172754
vt 0.139454 0.346903
vt 0.115623 0.338959
vt 0.123566 0.291298
vt 0.539166 0.301926
vt 0.514855 0.301926
vt 0.514855 0.334342
vt 0.539166 0.334342
vt 0.123566 0.291298
vt 0.115623 0.338959
vt 0.139454 0.346903
vt 0.482439 0.301926
vt 0.482439 0.334342
vn 1.0000 0.0000 -0.0000
vn 0.0000 -0.8321 0.5547
vn -1.0000 0.0000 0.0000
vn 0.0000 -0.9615 -0.2747
vn 0.0000 0.3162 0.9487
vn 0.0000 -0.2425 0.9701
usemtl TD_Checker
s 1
f 50/115/19 52/116/19 59/117/19
f 59/118/20 52/119/20 56/120/20 60/121/20
f 60/122/21 56/123/21 54/124/21
f 51/125/22 55/126/22 53/127/22 49/128/22
f 55/129/21 58/130/21 53/131/21
f 51/132/23 57/133/23 58/134/23 55/135/23
f 49/136/19 57/137/19 51/138/19
f 58/130/21 60/122/21 54/124/21 53/131/21
f 57/133/24 59/139/24 60/140/24 58/134/24
f 49/136/19 50/115/19 59/117/19 57/137/19
o hammer_Cylinder
v 0.125000 0.750000 -2.937500
v -0.125000 0.750000 -2.937500
v 0.125000 0.875000 -2.812500
v -0.125000 0.875000 -2.812500
v 0.125000 0.812500 -2.625000
v -0.125000 0.812500 -2.625000
v 0.125000 0.437500 -2.750000
v -0.125000 0.437500 -2.750000
v 0.125000 0.562500 -2.937500
v -0.125000 0.562500 -2.937500
v 0.125000 0.750000 -2.437500
v -0.125000 0.750000 -2.437500
v 0.125000 0.625000 -2.437500
v -0.125000 0.625000 -2.437500
v -0.125000 -0.062500 -2.625000
v 0.125000 -0.062500 -2.625000
v 0.125000 0.625000 -2.500000
v -0.125000 0.625000 -2.500000
v 0.125000 -0.062500 -2.437500
v -0.125000 -0.062500 -2.437500
vt 0.125000 0.000000
vt 0.125000 0.031250
vt 0.101562 0.031250
vt 0.101562 0.000000
vt 0.070312 0.031250
vt 0.070312 0.000000
vt 0.229056 0.067249
vt 0.229056 0.035553
vt 0.205284 0.035553
vt 0.205284 0.067249
vt 0.007812 0.039062
vt 0.023438 0.023438
vt 0.046875 0.023438
vt 0.062500 0.046875
vt 0.015625 0.062500
vt 0.085938 0.000000
vt 0.085938 0.031250
vt 0.109375 0.031250
vt 0.109375 0.000000
vt 0.148438 -0.000000
vt 0.148438 0.031250
vt 0.023438 0.023438
vt 0.007812 0.039062
vt 0.015625 0.062500
vt 0.062500 0.046875
vt 0.046875 0.023438
vt 0.046875 0.000000
vt 0.046875 0.031250
vt 0.031250 0.031250
vt 0.031250 0.000000
vt 0.222402 0.067249
vt 0.222402 0.035553
vt 0.214478 0.035553
vt 0.214478 0.067249
vt 0.039062 0.078125
vt 0.023438 0.085938
vt 0.039062 0.085938
vt 0.023438 0.085938
vt 0.039062 0.078125
vt 0.039062 0.085938
vt 0.125000 0.062500
vt 0.125000 0.085938
vt 0.070859 0.074501
vt 0.070859 0.042321
vt 0.135219 0.042321
vt 0.135219 0.074501
vt 0.187851 0.035770
vt 0.187851 0.067531
vt 0.275193 0.067531
vt 0.275193 0.035770
vt 0.125000 0.085938
vt 0.125000 0.062500
vn 0.0000 0.7071 -0.7071
vn 0.0000 0.9487 0.3162
vn 0.0000 -1.0000 -0.0000
vn -1.0000 0.0000 0.0000
vn 0.0000 -0.8321 -0.5547
vn 0.0000 0.0000 -1.0000
vn 1.0000 0.0000 -0.0000
vn 0.0000 -0.0000 1.0000
vn 0.0000 -0.2425 -0.9701
vn 0.0000 0.0905 0.9959
usemtl TD_Checker
s 1
f 61/141/25 62/142/25 64/143/25 63/144/25
f 63/144/26 64/143/26 66/145/26 65/146/26
f 75/147/27 76/148/27 79/149/27 80/150/27
f 64/151/28 62/152/28 70/153/28 68/154/28 66/155/28
f 67/156/29 68/157/29 70/158/29 69/159/29
f 69/160/30 70/161/30 62/142/30 61/141/30
f 61/162/31 63/163/31 65/164/31 67/165/31 69/166/31
f 71/167/32 72/168/32 74/169/32 73/170/32
f 78/171/27 77/172/27 73/173/27 74/174/27
f 77/175/31 71/176/31 73/177/31
f 72/178/28 78/179/28 74/180/28
f 66/155/28 68/154/28 78/179/28 72/178/28
f 67/165/31 65/164/31 71/176/31 77/175/31
f 78/179/28 68/154/28 75/181/28 80/182/28
f 65/146/26 66/145/26 72/168/26 71/167/26
f 68/183/33 67/184/33 76/185/33 75/186/33
f 77/187/34 78/188/34 80/189/34 79/190/34
f 67/165/31 77/175/31 79/191/31 76/192/31
o barrel_Cube.029
v 0.312500 0.562500 0.250000
v 0.000000 0.875000 0.250000
v 0.312500 0.562499 3.312500
v 0.000000 0.875000 3.312500
v 0.000000 0.250000 0.250000
v -0.312500 0.562500 0.250000
v 0.000000 0.249999 3.312500
v -0.312500 0.562499 3.312500
vt 0.789062 0.296875
vt 0.789062 0.343750
vt 0.328125 0.343750
vt 0.328125 0.296875
vt 0.695312 0.687500
vt 0.656250 0.726562
vt 0.695312 0.765625
vt 0.734375 0.726562
vt 0.328125 0.250000
vt 0.328125 0.296875
vt 0.789062 0.296875
vt 0.789062 0.250000
vt 0.328125 0.343750
vt 0.328125 0.296875
vt 0.789062 0.296875
vt 0.789062 0.343750
vn 0.7071 0.7071 0.0000
vn 0.0000 0.0000 1.0000
vn -0.7071 -0.7071 -0.0000
vn 0.7071 -0.7071 -0.0000
vn -0.7071 0.7071 0.0000
usemtl TD_Checker
s 1
f 81/193/35 82/194/35 84/195/35 83/196/35
f 83/197/36 84/198/36 88/199/36 87/200/36
f 87/201/37 88/202/37 86/203/37 85/204/37
f 83/196/38 87/201/38 85/204/38 81/193/38
f 88/205/39 84/206/39 82/207/39 86/208/39
o magazine_Cube.030
v 0.312500 -2.499999 -2.812500
v 0.312500 0.062500 -2.000000
v 0.312500 -2.687500 -2.000000
v -0.312500 -2.499999 -2.812500
v -0.312500 0.062500 -2.000000
v -0.312500 -2.687500 -2.000000
v 0.312500 0.000000 -1.312500
v 0.312500 -0.187500 -1.187500
v -0.312500 -0.187500 -1.187500
v -0.312500 0.000000 -1.312500
vt 0.726562 0.000000
vt 0.398438 0.000000
vt 0.398438 0.085938
vt 0.726562 0.085938
vt 0.843750 0.000000
vt 1.000000 0.296875
vt 0.992188 0.320312
vt 0.906250 0.343750
vt 0.742188 0.039062
vt 0.674337 0.231653
vt 0.522417 0.231653
vt 0.522417 0.194599
vt 0.674337 0.194599
vt 0.604478 0.001363
vt 0.604478 0.081832
vt 0.709087 0.081832
vt 0.709087 0.001363
vt 0.742188 0.039062
vt 0.906250 0.343750
vt 0.992188 0.320312
vt 1.000000 0.296875
vt 0.843750 0.000000
vt 0.375000 0.000000
vt 0.375000 0.085938
vt 0.507812 0.171875
vt 0.507812 0.085938
vt 0.593750 0.085938
vt 0.593750 0.171875
vn 0.0000 -0.3091 0.9510
vn -1.0000 0.0000 0.0000
vn 0.0000 0.3022 -0.9532
vn 0.0000 -0.9744 -0.2249
vn 1.0000 0.0000 -0.0000
vn 0.0000 0.5547 0.8321
vn 0.0000 0.9959 0.0905
usemtl TD_Checker
s 1
f 91/209/40 96/210/40 97/211/40 94/212/40
f 94/213/41 97/214/41 98/215/41 93/216/41 92/217/41
f 92/218/42 93/219/42 90/220/42 89/221/42
f 91/222/43 94/223/43 92/224/43 89/225/43
f 89/226/44 90/227/44 95/228/44 96/229/44 91/230/44
f 95/231/45 98/232/45 97/211/45 96/210/45
f 98/233/46 95/234/46 90/235/46 93/236/46
o frame_Cube.013
v -0.375000 0.000000 -2.625000
v 0.375000 0.000000 -2.625000
v -0.375000 -0.000000 1.437500
v 0.375000 -0.000000 1.437500
v -0.375000 -0.312500 -2.500000
v 0.375000 -0.312500 -2.500000
v -0.375000 -0.437500 1.437500
v 0.375000 -0.437500 1.437500
v 0.375000 0.000000 -1.000000
v -0.375000 0.000000 -1.000000
v 0.375000 -0.437500 -0.875000
v -0.375000 -0.437500 -0.875000
v -0.375000 -2.375000 -2.875000
v 0.375000 -2.375000 -2.875000
v 0.375000 -2.625000 -1.687500
v -0.375000 -2.625000 -1.687500
v -0.375000 -0.562500 -2.437500
v 0.375000 -0.562500 -2.437500
v 0.375000 -0.750000 -1.125000
v -0.375000 -0.750000 -1.125000
v -0.375000 -2.000000 -3.000000
v 0.375000 -2.000000 -3.000000
v 0.375000 -1.375000 -2.875000
v -0.375000 -1.375000 -2.875000
v -0.375000 0.000000 -2.875000
v 0.375000 0.000000 -2.875000
v -0.375000 -0.250000 -2.812500
v 0.375000 -0.250000 -2.812500
v -0.250000 -0.125000 -3.062500
v 0.250000 -0.125000 -3.062500
v -0.250000 -0.312500 -3.000000
v 0.250000 -0.312500 -3.000000
v 0.375000 -0.875000 -2.500000
v -0.375000 -0.875000 -2.500000
v 0.187500 -1.312500 -1.375000
v 0.187500 -0.875000 -1.250000
v 0.187500 -1.250000 -1.125000
v 0.187500 -1.062500 -1.062500
v -0.187500 -1.312500 -1.375000
v -0.187500 -0.875000 -1.250000
v -0.187500 -1.250000 -1.125000
v -0.187500 -1.062500 -1.062500
v 0.187500 -1.312500 -0.312500
v 0.187500 -1.125000 -0.312500
v -0.187500 -1.312500 -0.312500
v -0.187500 -1.125000 -0.312500
v 0.187500 -1.187500 -0.000000
v 0.187500 -1.062500 -0.125000
v -0.187500 -1.187500 -0.000000
v -0.187500 -1.062500 -0.125000
v 0.187500 -0.625000 0.125000
v 0.187500 -0.562500 -0.062500
v -0.187500 -0.625000 0.125000
v -0.187500 -0.562500 -0.062500
v 0.187500 -0.375000 0.312500
v 0.187500 -0.375000 -0.187500
v -0.187500 -0.375000 0.312500
v -0.187500 -0.375000 -0.187500
vt 0.687500 0.468750
vt 0.476562 0.468750
vt 0.476562 0.375000
vt 0.687500 0.375000
vt 0.234375 0.257812
vt 0.281250 0.257812
vt 0.281250 0.359375
vt 0.234375 0.359375
vt 0.265625 1.000000
vt 0.281250 0.945312
vt 0.570312 0.945312
vt 0.570312 1.000000
vt 0.070312 0.960938
vt 0.031250 0.968750
vt 0.023438 1.000000
vt 0.054688 1.000000
vt 0.265625 1.000000
vt 0.281250 0.945312
vt 0.226562 0.750000
vt 0.281250 0.750000
vt 0.281250 0.656250
vt 0.226562 0.656250
vt 0.570312 1.000000
vt 0.570312 0.945312
vt 0.054688 1.000000
vt 0.070312 0.960938
vt 0.000000 0.367188
vt 0.000000 0.460938
vt 0.289062 0.460938
vt 0.289062 0.367188
vt 1.000000 0.468750
vt 1.000000 0.375000
vt 0.132812 0.140625
vt 0.132812 0.234375
vt 0.281250 0.234375
vt 0.281250 0.140625
vt 0.171875 0.664062
vt 0.023438 0.695312
vt 0.007812 0.742188
vt 0.007812 0.742188
vt 0.023438 0.695312
vt 0.171875 0.664062
vt 0.296875 0.781250
vt 0.335938 0.781250
vt 0.335938 0.687500
vt 0.296875 0.687500
vt 0.078125 0.929688
vt 0.250000 0.906250
vt 0.250000 0.906250
vt 0.078125 0.929688
vt 0.007812 0.257812
vt 0.039062 0.257812
vt 0.039062 0.359375
vt 0.007812 0.359375
vt 0.023438 0.828125
vt 0.023438 0.828125
vt 0.148438 0.257812
vt 0.148438 0.359375
vt 0.085938 0.257812
vt 0.085938 0.359375
vt 0.070312 0.890625
vt 0.070312 0.890625
vt 0.585938 0.781250
vt 0.585938 0.687500
vt 0.007812 0.960938
vt 0.000000 0.984375
vt 0.015625 0.242188
vt 0.054688 0.242188
vt 0.054688 0.140625
vt 0.015625 0.140625
vt 0.445312 0.468750
vt 0.445312 0.375000
vt 0.023438 1.000000
vt 0.031250 0.968750
vt 0.397188 0.381245
vt 0.421634 0.381245
vt 0.421634 0.446433
vt 0.397188 0.446433
vt 0.078125 0.226562
vt 0.078125 0.164062
vt 0.000000 0.984375
vt 0.007812 0.960938
vt 0.421875 0.453125
vt 0.421875 0.390625
vt 0.289062 0.109375
vt 0.304688 0.164062
vt 0.328125 0.140625
vt 0.320312 0.117188
vt 0.772532 0.833913
vt 0.772532 0.883244
vt 0.673869 0.883244
vt 0.673869 0.833913
vt 0.320312 0.117188
vt 0.328125 0.140625
vt 0.304688 0.164062
vt 0.289062 0.109375
vt 0.195312 0.265625
vt 0.195312 0.312500
vt 0.234375 0.312500
vt 0.234375 0.265625
vt 0.797197 0.833913
vt 0.797197 0.883244
vt 0.649203 0.883244
vt 0.649203 0.833913
vt 0.421875 0.132812
vt 0.421875 0.109375
vt 0.421875 0.109375
vt 0.421875 0.132812
vt 0.093750 0.265625
vt 0.093750 0.312500
vt 0.445312 0.140625
vt 0.460938 0.125000
vt 0.476562 0.195312
vt 0.453125 0.203125
vt 0.445312 0.140625
vt 0.460938 0.125000
vt 0.054688 0.265625
vt 0.054688 0.312500
vt 0.062500 0.312500
vt 0.062500 0.265625
vt 0.031250 0.265625
vt 0.031250 0.312500
vt 0.140625 0.312500
vt 0.140625 0.265625
vt 0.759296 0.834138
vt 0.759296 0.883019
vt 0.694121 0.883019
vt 0.694121 0.834138
vt 0.453125 0.203125
vt 0.476562 0.195312
vt 0.669681 0.883019
vt 0.669681 0.834138
vt 0.437500 0.226562
vt 0.500000 0.226562
vt 0.500000 0.226562
vt 0.437500 0.226562
vn 0.0000 1.0000 0.0000
vn 0.0000 -0.3162 -0.9487
vn -1.0000 0.0000 0.0000
vn 1.0000 0.0000 -0.0000
vn 0.0000 -0.0000 1.0000
vn -0.0000 -1.0000 -0.0000
vn 0.0000 -0.9785 -0.2060
vn 0.0000 -0.6247 0.7809
vn 0.0000 -0.2425 -0.9701
vn 0.0000 0.1961 -0.9806
vn 0.0000 0.6000 -0.8000
vn 0.0000 -0.2873 0.9578
vn 0.8550 -0.1425 -0.4987
vn 0.0000 -0.9806 -0.1961
vn 0.0000 -0.9487 0.3162
vn -0.8550 -0.1425 -0.4987
vn 0.0000 0.8321 -0.5547
vn 0.0000 0.9965 0.0830
vn 0.0000 -0.9701 0.2425
vn 0.0000 0.7071 0.7071
vn -0.0000 0.9487 -0.3162
vn 0.0000 -0.9971 -0.0767
vn 0.0000 -0.9285 0.3714
vn 0.0000 -0.6000 0.8000
vn 0.0000 -0.2169 0.9762
vn -0.0000 0.1240 -0.9923
vn -0.0000 -0.5547 -0.8321
usemtl TD_Checker
s 1
f 107/237/47 100/238/47 99/239/47 108/240/47
f 120/241/48 112/242/48 111/243/48 119/244/48
f 108/245/49 110/246/49 105/247/49 101/248/49
f 104/249/50 126/250/50 124/251/50 100/252/50
f 107/253/50 109/254/50 104/249/50 100/252/50
f 101/255/51 105/256/51 106/257/51 102/258/51
f 102/259/50 106/260/50 109/254/50 107/253/50
f 99/261/49 103/262/49 110/246/49 108/245/49
f 106/263/52 105/264/52 110/265/52 109/266/52
f 102/267/47 107/237/47 108/240/47 101/268/47
f 113/269/53 114/270/53 111/271/53 112/272/53
f 113/273/50 112/274/50 120/275/50
f 119/276/49 111/277/49 114/278/49
f 110/279/54 118/280/54 117/281/54 109/282/54
f 103/262/49 115/283/49 118/284/49 110/246/49
f 109/254/50 117/285/50 116/286/50 104/249/50
f 104/287/55 116/288/55 115/289/55 103/290/55
f 122/291/49 119/276/49 114/278/49
f 113/273/50 120/275/50 121/292/50
f 121/293/56 120/241/56 119/244/56 122/294/56
f 131/295/57 121/293/57 122/294/57 132/296/57
f 117/285/50 113/273/50 121/292/50 131/297/50
f 132/298/49 122/291/49 114/278/49 118/284/49
f 118/280/58 114/299/58 113/300/58 117/281/58
f 126/250/59 130/301/59 128/302/59 124/251/59
f 103/303/60 125/304/60 126/305/60 104/306/60
f 100/238/47 124/307/47 123/308/47 99/239/47
f 99/261/49 123/309/49 125/310/49 103/262/49
f 128/311/48 130/312/48 129/313/48 127/314/48
f 125/304/61 129/315/61 130/316/61 126/305/61
f 123/309/62 127/317/62 129/318/62 125/310/62
f 124/307/63 128/319/63 127/320/63 123/308/63
f 115/283/49 132/298/49 118/284/49
f 117/285/50 131/297/50 116/286/50
f 116/288/56 131/295/56 132/296/56 115/289/56
f 133/321/50 134/322/50 136/323/50 135/324/50
f 136/325/64 140/326/64 144/327/64 142/328/64
f 139/329/49 140/330/49 138/331/49 137/332/49
f 135/333/65 139/334/65 137/335/65 133/336/65
f 140/326/66 136/325/66 134/337/66 138/338/66
f 142/328/67 144/327/67 148/339/67 146/340/67
f 135/324/50 136/323/50 142/341/50 141/342/50
f 140/330/49 139/329/49 143/343/49 144/344/49
f 139/334/68 135/333/68 141/345/68 143/346/68
f 148/347/49 147/348/49 151/349/49 152/350/49
f 141/342/50 142/341/50 146/351/50 145/352/50
f 144/344/49 143/343/49 147/348/49 148/347/49
f 143/346/69 141/345/69 145/353/69 147/354/69
f 151/355/70 149/356/70 153/357/70 155/358/70
f 147/359/71 145/360/71 149/356/71 151/355/71
f 146/361/72 148/362/72 152/363/72 150/364/72
f 145/352/50 146/351/50 150/365/50 149/366/50
f 150/364/73 152/363/73 156/367/73 154/368/73
f 149/366/50 150/365/50 154/369/50 153/370/50
f 152/350/49 151/349/49 155/371/49 156/372/49
